<svg id="Capa_1" enable-background="new 0 0 512 512" height="512" viewBox="0 0 512 512" width="512" xmlns="http://www.w3.org/2000/svg"><g><g><path d="m217.519 339.167c-6.896 0-12.722-7.842-12.722-17.125 0-12.407-10.093-22.5-22.5-22.5s-22.5 10.093-22.5 22.5c0 34.256 25.894 62.125 57.722 62.125h15.981v22.5c0 12.407 10.093 22.5 22.5 22.5s22.5-10.093 22.5-22.5v-22.5h15.981c8.709 0 17.085-2.044 24.896-6.076 3.681-1.9 5.125-6.423 3.225-10.104-1.899-3.68-6.422-5.125-10.104-3.225-5.663 2.923-11.725 4.405-18.017 4.405h-23.481c-4.142 0-7.5 3.358-7.5 7.5v30c0 4.136-3.364 7.5-7.5 7.5s-7.5-3.364-7.5-7.5v-30c0-4.142-3.358-7.5-7.5-7.5h-23.481c-23.557 0-42.722-21.14-42.722-47.125 0-4.136 3.364-7.5 7.5-7.5 4.135 0 7.5 3.364 7.5 7.5 0 17.714 12.436 32.125 27.722 32.125h23.481c4.142 0 7.5-3.358 7.5-7.5v-75.667c0-4.142-3.358-7.5-7.5-7.5h-23.48c-11.58 0-22.416-5.015-30.512-14.123-7.875-8.858-12.211-20.579-12.211-33.002v-26.417c0-25.985 19.165-47.125 42.722-47.125h23.481c4.142 0 7.5-3.358 7.5-7.5v-30c0-4.136 3.364-7.5 7.5-7.5s7.5 3.364 7.5 7.5v30c0 4.142 3.358 7.5 7.5 7.5h23.481c23.557 0 42.722 21.14 42.722 47.125 0 4.136-3.364 7.5-7.5 7.5-4.135 0-7.5-3.364-7.5-7.5 0-17.714-12.436-32.125-27.722-32.125h-23.481c-4.142 0-7.5 3.358-7.5 7.5v75.666c0 1.989.79 3.897 2.197 5.303 1.407 1.407 3.314 2.197 5.303 2.197h23.48c11.58 0 22.416 5.015 30.512 14.123 7.875 8.858 12.211 20.579 12.211 33.002v26.418c0 7.322-1.489 14.341-4.424 20.863-1.7 3.777-.017 8.217 3.76 9.917 3.777 1.701 8.217.017 9.917-3.76 3.813-8.47 5.747-17.561 5.747-27.02v-26.418c0-16.101-5.682-31.36-16-42.968-10.982-12.354-25.8-19.158-41.724-19.157h-15.98v-60.666h15.981c6.896 0 12.722 7.842 12.722 17.125 0 12.407 10.093 22.5 22.5 22.5s22.5-10.093 22.5-22.5c0-34.256-25.894-62.125-57.722-62.125h-15.98v-22.5c0-12.407-10.093-22.5-22.5-22.5s-22.5 10.093-22.5 22.5v22.5h-15.981c-31.828 0-57.722 27.869-57.722 62.125v26.417c0 16.101 5.682 31.36 16 42.968 10.982 12.354 25.8 19.158 41.724 19.157h15.98v60.667zm38.481-299.167c-46.53 0-90.884 14.628-128.265 42.303-3.329 2.464-4.03 7.161-1.565 10.49 2.465 3.33 7.162 4.031 10.49 1.565 34.78-25.748 76.047-39.358 119.34-39.358 110.832 0 201 90.168 201 201s-90.168 201-201 201-201-90.168-201-201c0-52.048 19.898-101.443 56.029-139.087 2.868-2.988 2.771-7.736-.218-10.604s-7.737-2.771-10.604.218c-38.825 40.45-60.207 93.534-60.207 149.473 0 119.103 96.897 216 216 216s216-96.897 216-216-96.897-216-216-216zm181.02 34.98c-48.353-48.351-112.64-74.98-181.02-74.98s-132.667 26.629-181.02 74.98c-48.351 48.353-74.98 112.64-74.98 181.02s26.629 132.667 74.98 181.02c48.353 48.351 112.64 74.98 181.02 74.98s132.667-26.629 181.02-74.98c48.351-48.353 74.98-112.64 74.98-181.02s-26.629-132.667-74.98-181.02zm-10.607 351.433c-45.519 45.519-106.039 70.587-170.413 70.587s-124.894-25.068-170.413-70.587-70.587-106.039-70.587-170.413 25.068-124.894 70.587-170.413 106.039-70.587 170.413-70.587 124.894 25.068 170.413 70.587 70.587 106.039 70.587 170.413-25.068 124.894-70.587 170.413zm-131.932-162.914h-23.481c-4.142 0-7.5 3.358-7.5 7.5v75.668c0 4.142 3.358 7.5 7.5 7.5h23.481c15.286 0 27.722-14.411 27.722-32.125v-26.418c0-8.746-2.991-16.927-8.422-23.036-5.209-5.861-12.063-9.089-19.3-9.089zm12.723 58.543c0 9.283-5.826 17.125-12.722 17.125h-15.982v-60.668h15.981c2.893 0 5.766 1.439 8.089 4.054 2.988 3.361 4.633 8.003 4.633 13.071v26.418zm-66.204-164.209h-23.481c-15.286 0-27.722 14.411-27.722 32.125v26.417c0 8.746 2.991 16.927 8.422 23.036 5.209 5.861 12.064 9.089 19.301 9.089h23.48c4.142 0 7.5-3.358 7.5-7.5v-75.667c0-4.142-3.358-7.5-7.5-7.5zm-7.5 75.667h-15.981c-2.893 0-5.766-1.439-8.089-4.054-2.988-3.361-4.633-8.003-4.633-13.071v-26.417c0-9.283 5.826-17.125 12.722-17.125h15.981z"/></g></g></svg>