<?xml version="1.0" encoding="UTF-8"?>
<svg xmlns="http://www.w3.org/2000/svg" id="Outline" viewBox="0 0 512 512" width="512" height="512"><path d="M24,496H488a8,8,0,0,0,6.86-12.116l-9.434-15.723A72.146,72.146,0,0,0,437.807,434.6L352,417.441V393.92A103.878,103.878,0,0,0,392,312V296h8a40.045,40.045,0,0,0,40-40V192a8,8,0,0,0-13.122-6.146L392,214.92V184a104,104,0,0,0-3.652-27.344,111.912,111.912,0,0,0,34.807-41.078c25.669-51.338.777-93.907-.295-95.694a8,8,0,0,0-14.705,2.547C402,53.2,385.189,77.594,358.183,94.945c-2.961,1.9-5.889,3.608-8.736,5.144A103.892,103.892,0,0,0,288,80H224a104.315,104.315,0,0,0-61.441,20.091c-2.849-1.536-5.779-3.242-8.742-5.146C126.811,77.594,110,53.2,103.845,22.431a8,8,0,0,0-14.7-2.547c-1.072,1.787-25.964,44.356-.3,95.694a111.915,111.915,0,0,0,34.806,41.077A104.082,104.082,0,0,0,120,184v30.92L85.122,185.854A8,8,0,0,0,72,192v64a40.045,40.045,0,0,0,40,40h8v16a103.878,103.878,0,0,0,40,81.92v23.521L74.192,434.6a72.146,72.146,0,0,0-47.618,33.558L17.14,483.884A8,8,0,0,0,24,496ZM424,209.08V256a24.027,24.027,0,0,1-24,24h-8V235.747ZM366.3,108.749c23.384-14.88,40.508-35.139,50.418-59.392a89,89,0,0,1-7.868,59.065c-19.565,39.13-55.9,49.415-64.406,51.329-5.267-1.936-20.119-9.551-17.373-33.284A151.83,151.83,0,0,0,366.3,108.749Zm-263.14-.327C91.473,85.058,92.071,63.933,95.229,49.214c9.9,24.317,27.045,44.625,50.476,59.535a151.83,151.83,0,0,0,39.229,17.718c2.75,23.759-12.137,31.365-17.347,33.279C159.223,157.811,122.594,147.3,103.155,108.422ZM112,280a24.027,24.027,0,0,1-24-24V209.08l32,26.667V280Zm24,32V184a88.354,88.354,0,0,1,1.962-18.5c15.35,8.032,27.692,10.217,28.723,10.389a8.02,8.02,0,0,0,3.255-.131c.394-.1,39.292-10.393,29.905-57.33a8.022,8.022,0,0,0-6.262-6.273,104.126,104.126,0,0,1-13.817-4.249A86.974,86.974,0,0,1,224,96h64a87.921,87.921,0,0,1,44.2,11.922,103.887,103.887,0,0,1-13.782,4.235,8,8,0,0,0-6.266,6.274c-9.387,46.937,29.511,57.232,29.905,57.33a8.02,8.02,0,0,0,3.255.131c1.031-.172,13.38-2.358,28.737-10.4A88.34,88.34,0,0,1,376,184V312a88.1,88.1,0,0,1-88,88H224A88.1,88.1,0,0,1,136,312ZM40.293,476.394a56.118,56.118,0,0,1,37.038-26.1l92.238-18.447A8,8,0,0,0,176,424V404.239A103.366,103.366,0,0,0,224,416h64a103.366,103.366,0,0,0,48-11.761V424a8,8,0,0,0,6.431,7.845l92.238,18.447a56.118,56.118,0,0,1,37.038,26.1L473.871,480H38.129Z"/><path d="M312,328H200a7.988,7.988,0,0,0-6.853,12.112l-.007,0,24,40a8,8,0,0,0,13.72,0L252.53,344H312a8,8,0,0,0,0-16Zm-88,32.451L214.129,344h19.742Z"/><path d="M357.657,210.343a8,8,0,0,0-11.314,0c-.3.3-30.351,29.657-90.343,29.657-31.121,0-54.013-8.057-67.737-14.815-14.9-7.339-22.552-14.789-22.606-14.842a8,8,0,0,0-11.314,11.314,71.565,71.565,0,0,0,7.527,6.257,40,40,0,0,0,75.182,27.152c5.994.593,12.3.934,18.948.934s12.954-.341,18.947-.934a40,40,0,0,0,75.183-27.152,71.565,71.565,0,0,0,7.527-6.257A8,8,0,0,0,357.657,210.343ZM200,264a24.028,24.028,0,0,1-24-24,24.422,24.422,0,0,1,.188-3.025,154.484,154.484,0,0,0,44.217,15.649A24.076,24.076,0,0,1,200,264Zm136-24a24,24,0,0,1-44.406,12.625,154.509,154.509,0,0,0,44.218-15.65A24.422,24.422,0,0,1,336,240Z"/></svg>
