<?xml version="1.0" encoding="iso-8859-1"?>
<!-- Generator: Adobe Illustrator 19.0.0, SVG Export Plug-In . SVG Version: 6.00 Build 0)  -->
<svg version="1.1" id="Capa_1" xmlns="http://www.w3.org/2000/svg" xmlns:xlink="http://www.w3.org/1999/xlink" x="0px" y="0px"
	 viewBox="0 0 512.001 512.001" style="enable-background:new 0 0 512.001 512.001;" xml:space="preserve">
<g>
	<g>
		<path d="M501.997,491.998H278.098l11.907-34.001h78.865c5.522,0,10-4.477,10-10c0-31.256-25.047-56.773-56.131-57.544
			c-1.693-3.267-3.652-6.359-5.837-9.262l13.547-38.683c12.206,9.39,29.956,8.46,41.054-2.675l11.998-12.036
			c4.317-4.331,11.369-4.357,15.718-0.057l12.444,12.306c6.018,5.95,13.947,8.979,21.909,8.979c6.767,0,13.558-2.188,19.214-6.63
			l3.038-2.386l36.738,104.908c1.442,4.119,5.307,6.698,9.438,6.698c1.097,0,2.212-0.182,3.306-0.565
			c5.212-1.825,7.958-7.531,6.132-12.743l-85.16-243.177c-4.935-14.092-17.771-23.197-32.702-23.198c-0.001,0,0,0-0.001,0
			c-14.931,0-27.769,9.106-32.704,23.198l-16.197,46.249L279.531,92.774C275.373,83.29,266.356,77.398,256,77.398
			c-10.356,0-19.372,5.893-23.529,15.377l-12.625,28.8c-2.218,5.058,0.085,10.956,5.144,13.173
			c5.06,2.219,10.956-0.085,13.173-5.144l12.626-28.8c1.348-3.074,4.094-3.406,5.212-3.407c1.119,0,3.866,0.332,5.214,3.407
			l56.613,129.15l-11.402,11.401c-2.439,2.44-5.665,3.752-9.136,3.728c-3.451-0.036-6.667-1.428-9.055-3.919l-5.938-6.194
			c-6.79-7.082-16.316-10.72-26.072-9.988c-9.781,0.733-18.636,5.75-24.292,13.762l-7.545,10.688
			c-2.171,3.074-5.565,5.021-9.315,5.342c-3.751,0.317-7.426-1.021-10.086-3.683l-13.959-13.959l10.571-24.115
			c2.218-5.058-0.085-10.956-5.144-13.173c-5.058-2.217-10.955,0.086-13.173,5.144l-28.748,65.579l-26.747-69.25
			c-4.068-10.534-13.994-17.341-25.287-17.341c-11.292,0-21.218,6.807-25.286,17.341l-36.064,93.376
			c-0.106,0.247-0.205,0.496-0.289,0.748L0.674,399.489c-1.99,5.152,0.573,10.941,5.726,12.932c1.185,0.457,2.402,0.674,3.601,0.674
			c4.013,0,7.798-2.432,9.33-6.399l35.054-90.759l10.174,9.362c5.235,4.817,12.036,7.273,19.135,6.911
			c7.104-0.36,13.617-3.49,18.338-8.812l4.054-4.571c1.633-1.841,3.648-2.116,4.707-2.116h0.004c1.058,0,3.076,0.277,4.709,2.123
			l11.95,13.511L57.468,491.998H10.003c-5.522,0-10,4.477-10,10s4.478,10,10,10h491.993c5.522,0,10-4.477,10-10
			S507.518,491.998,501.997,491.998z M379.745,201.74c2.533-7.231,8.804-9.808,13.828-9.808c5.024,0,11.295,2.577,13.827,9.808
			l41.437,118.325l-8.405,6.6c-4.405,3.459-10.728,3.097-14.709-0.84l-12.444-12.306c-12.159-12.023-31.874-11.953-43.944,0.158
			l-11.997,12.036c-4.263,4.276-11.267,4.347-15.615,0.158l-4.074-3.927L379.745,201.74z M110.808,296.711c-0.007,0-0.011,0-0.011,0
			c-7.521,0-14.69,3.224-19.676,8.846l-4.054,4.571c-1.13,1.273-2.688,2.022-4.388,2.109c-1.727,0.079-3.327-0.502-4.579-1.654
			L62.13,295.885l33.743-87.363c1.585-4.104,5.165-4.547,6.63-4.547c1.466,0,5.046,0.443,6.631,4.547l34.005,88.044l-6.836,15.595
			l-5.817-6.577C125.502,299.949,118.33,296.715,110.808,296.711z M256.907,491.999H79.303v-0.001l103.104-235.204l8.437,8.437
			c6.175,6.175,14.477,9.588,23.124,9.588c0.933,0,1.871-0.04,2.81-0.12c9.64-0.825,18.369-5.831,23.948-13.734l7.545-10.687
			c2.201-3.117,5.645-5.068,9.448-5.353c3.807-0.293,7.5,1.13,10.141,3.884l5.938,6.194c6.141,6.405,14.409,9.984,23.282,10.077
			c0.118,0.001,0.236,0.002,0.355,0.002c8.739,0,16.942-3.396,23.132-9.586l5.88-5.879l8.528,19.456l-33.974,97.011
			c-10.788-7.312-23.705-11.505-37.218-11.505c-24.851,0-47.699,14.155-58.951,35.875c-31.085,0.771-56.133,26.289-56.133,57.544
			c0,5.523,4.478,10,10,10h20.43c5.522,0,10-4.477,10-10c0-5.523-4.478-10-10-10h-9.078c4.392-15.874,18.972-27.563,36.232-27.563
			c1.261,0,2.572,0.068,3.896,0.202c4.493,0.45,8.729-2.158,10.343-6.374c6.799-17.755,24.185-29.685,43.262-29.685
			c19.079,0,36.466,11.93,43.266,29.686c1.615,4.215,5.836,6.826,10.344,6.373c1.323-0.133,2.633-0.201,3.894-0.201
			c17.261,0,31.841,11.689,36.232,27.563H250.003c-5.522,0-10,4.477-10,10s4.478,10,10,10h18.811L256.907,491.999z"/>
	</g>
</g>
<g>
	<g>
		<path d="M140.091,28.16c-9.394-17.089-27.71-28.157-47.59-28.157c-19.88,0-38.195,11.067-47.589,28.157
			C19.931,29.435,0.003,50.12,0.003,75.364c0,5.523,4.477,10,10,10h164.996c5.522,0,10-4.477,10-10
			C184.999,50.12,165.07,29.435,140.091,28.16z M21.908,65.365c4.01-10.103,13.906-17.268,25.45-17.268
			c0.911,0,1.871,0.05,2.852,0.148c4.479,0.453,8.718-2.158,10.333-6.368C65.562,28.794,78.404,20.003,92.5,20.003
			c14.098,0,26.94,8.79,31.959,21.874c1.615,4.21,5.84,6.82,10.334,6.369c0.979-0.098,1.938-0.148,2.85-0.148
			c11.545,0,21.442,7.165,25.452,17.267H21.908z"/>
	</g>
</g>
<g>
	<g>
		<path d="M450.997,54.004c-17.876,0-34.449,7.652-45.938,20.86c-5.625-2.543-11.734-3.86-18.061-3.86
			c-24.262,0-43.999,19.738-43.999,43.999c0,5.523,4.477,10,10,10h148.998c5.522,0,10-4.477,10-10
			C511.996,81.368,484.633,54.004,450.997,54.004z M365.181,105.003c3.799-8.255,12.15-14,21.817-14
			c5.335,0,10.388,1.718,14.612,4.969c2.236,1.721,5.098,2.416,7.874,1.916c2.777-0.501,5.214-2.153,6.708-4.547
			c7.557-12.109,20.568-19.338,34.806-19.338c19.159,0,35.291,13.21,39.766,31H365.181z"/>
	</g>
</g>
<g>
	<g>
		<path d="M218.741,157.261c-1.86-1.86-4.44-2.93-7.07-2.93c-2.641,0-5.21,1.07-7.08,2.93c-1.86,1.87-2.92,4.44-2.92,7.07
			c0,2.63,1.06,5.21,2.92,7.08c1.87,1.861,4.45,2.92,7.08,2.92c2.63,0,5.2-1.06,7.07-2.92c1.859-1.86,2.93-4.44,2.93-7.08
			C221.671,161.701,220.601,159.121,218.741,157.261z"/>
	</g>
</g>
<g>
	<g>
		<path d="M220.069,440.928c-1.859-1.86-4.439-2.93-7.069-2.93c-2.63,0-5.209,1.07-7.07,2.93c-1.86,1.86-2.93,4.44-2.93,7.07
			c0,2.63,1.069,5.21,2.93,7.07s4.44,2.93,7.07,2.93c2.63,0,5.21-1.07,7.069-2.93c1.86-1.86,2.931-4.44,2.931-7.07
			C223,445.368,221.93,442.788,220.069,440.928z"/>
	</g>
</g>
<g>
</g>
<g>
</g>
<g>
</g>
<g>
</g>
<g>
</g>
<g>
</g>
<g>
</g>
<g>
</g>
<g>
</g>
<g>
</g>
<g>
</g>
<g>
</g>
<g>
</g>
<g>
</g>
<g>
</g>
</svg>
