<svg id="Capa_1" enable-background="new 0 0 512.094 512.094" height="512" viewBox="0 0 512.094 512.094" width="512" xmlns="http://www.w3.org/2000/svg"><g><path d="m233.882 286.084c3.134-2.707 3.481-7.442.775-10.577-2.707-3.135-7.44-3.483-10.576-.777-1.214 1.048-11.98 10.405-16.206 16.314-2.817 3.939-3.57 8.945-2.238 14.879.783 3.489 3.878 5.859 7.311 5.859.544 0 1.097-.06 1.649-.184 4.04-.907 6.581-4.918 5.675-8.959-.487-2.169-.197-2.871-.197-2.871 2.402-3.358 9.743-10.176 13.807-13.684z"/><path d="m150.282 382.01c.814 3.452 3.893 5.779 7.292 5.779.57 0 1.149-.065 1.728-.202 32.018-7.552 56.918-22.024 68.315-39.706 1.719-2.667 2.784-5.676 3.167-8.944.481-4.113-2.463-7.839-6.575-8.321-4.111-.479-7.839 2.462-8.321 6.576-.117 1.003-.396 1.819-.877 2.565-9.177 14.237-31.29 26.661-59.151 33.232-4.031.952-6.529 4.991-5.578 9.021z"/><path d="m111.769 393.007c3.842 0 7.732-.105 11.562-.311 4.135-.224 7.308-3.757 7.084-7.892-.223-4.136-3.756-7.299-7.892-7.084-3.562.192-7.18.29-10.753.29h-38.597c-4.142 0-7.499 3.357-7.499 7.499s3.357 7.499 7.499 7.499h38.596z"/><path d="m453.464 306.806v-4.803h9.252c3.617 0 7.024-1.762 9.114-4.715 1.241-1.752 1.917-3.805 2.022-5.896h30.741c4.142 0 7.499-3.357 7.499-7.499s-3.357-7.499-7.499-7.499h-35.129l-12.968-36.792c-1.595-4.528-5.729-7.454-10.53-7.454-4.802 0-8.935 2.926-10.531 7.454l-12.969 36.791h-98.959v-106.47l40.48-7.522v50.76c0 4.142 3.357 7.499 7.499 7.499s7.499-3.357 7.499-7.499v-49.688l123.443 37.22c3.943 1.19 8.143-1.029 9.344-5.015 1.195-3.965-1.049-8.151-5.015-9.344-136.037-40.94-133.361-40.934-136.641-40.325l-41.915 7.789 10.87-26.352c2.034-4.933-1.599-10.358-6.933-10.358h-34.622l25.613-13.893c4.622-2.509 10.102-2.879 15.029-1.021l163.785 61.878c3.875 1.463 8.202-.491 9.665-4.365 1.464-3.874-.49-8.202-4.365-9.665l-163.789-61.88c-9.012-3.399-19.026-2.716-27.479 1.87l-51.562 27.969c-2.358 1.27-3.948 3.791-3.948 6.605v27.912l-118.053 17.812c-4.23.354-71.444 5.345-97.386 7.268-7.385.543-14.118 4.305-18.481 10.331l-24.966 34.616c-2.58 3.578-1.158 4.099-1.417 43.791-.027 4.141 3.357 7.499 7.499 7.499s7.499-3.357 7.499-7.499v-21.294l6.105 6.108c1.406 1.408 3.314 2.198 5.304 2.198h96.506v73.46c-1.632.405-3.312.619-5.003.619h-102.912v-26.275c0-4.142-3.357-7.499-7.499-7.499s-7.499 3.357-7.499 7.499v33.774c0 4.142 3.357 7.499 7.499 7.499h110.411c7.935 0 15.755-2.684 22.017-7.558l36.504-28.405c11.57-9.002 18.205-22.573 18.205-37.234v-1.313l65.668-20.584v33.637c-3.733 4.073-11.3 12.603-14.677 18.385-5.474 9.378-1.275 21.076 3.17 33.461 3.713 10.348 7.924 22.076 4.346 28.874-15.066 28.637-60.472 49.422-107.964 49.422h-137.68c-4.142 0-7.499 3.357-7.499 7.499s3.357 7.499 7.499 7.499h496.932c4.142 0 7.499-3.357 7.499-7.499s-3.357-7.499-7.499-7.499h-287.49c22.458-10.178 40.267-24.936 49.476-42.439 6.649-12.638 1.256-27.666-3.503-40.925-2.651-7.384-6.28-17.498-4.333-20.833 2.389-4.093 8.618-11.245 12.497-15.501h146.84c.105 2.091.781 4.143 2.022 5.896 2.09 2.952 5.497 4.715 9.114 4.715h9.252v4.803c0 4.142 3.357 7.499 7.499 7.499s7.497-3.358 7.497-7.499zm-435.989-80.683 21.227-29.43c1.755-2.424 4.46-3.939 7.429-4.158 97.253-7.209 97.914-7.306 98.301-7.362l116.034-17.507v14.619l-94.912 14.626c-3.653.555-6.683 3.205-7.721 6.751-1.037 3.543.086 7.406 2.854 9.834l11.861 10.431-43.191 14.404h-99.681zm149.907 68.481-29.309 22.808v-66.179l41.727-13.915v31.89c0 10-4.526 19.257-12.418 25.396zm24.975-73.217c-.037-.034-.068-.073-.105-.106l-12.877-11.325 81.091-12.496v34.132l-65.668 20.584c-.673-23.677 1.687-27.007-2.441-30.789zm83.106-89.301h45.469c-8.1 19.638-6.772 16.432-11.87 28.784-1.206 2.968-.239-2.032-.553 115.525h-33.046c0-16.619 0-128.512 0-144.309zm170.502 122.757 11.336 32.162h-22.673z"/><path d="m336.431 377.881c4.142 0 7.499-3.357 7.499-7.499v-4.803h9.252c3.617 0 7.024-1.762 9.114-4.715s2.62-6.752 1.417-10.163l-16.752-47.523c-1.595-4.527-5.729-7.453-10.529-7.454-4.8 0-8.934 2.926-10.532 7.453l-16.751 47.524c-1.203 3.411-.673 7.21 1.417 10.163s5.497 4.715 9.114 4.715h9.252v4.803c0 4.142 3.357 7.499 7.499 7.499zm0-59.461 11.336 32.162h-22.673z"/><path d="m417.411 399.158c4.142 0 7.499-3.357 7.499-7.499v-4.803h9.252c3.617 0 7.023-1.762 9.113-4.714s2.62-6.752 1.417-10.163l-16.751-47.523c-1.595-4.528-5.729-7.454-10.53-7.454-4.802 0-8.935 2.926-10.531 7.454l-16.751 47.523c-1.203 3.412-.673 7.211 1.417 10.163s5.496 4.714 9.113 4.714h9.253v4.803c0 4.142 3.357 7.499 7.499 7.499zm0-59.461 11.335 32.162h-22.672z"/></g></svg>