<svg id="Layer_1" enable-background="new 0 0 512 512" height="512" viewBox="0 0 512 512" width="512" xmlns="http://www.w3.org/2000/svg"><g><g><path d="m489.493 467h-7.5v-93.798c2.399.849 4.929 1.297 7.48 1.297h.004c8.061 0 15.551-4.345 19.548-11.339 2.982-5.218 3.753-11.285 2.172-17.083s-5.326-10.633-10.544-13.615l-104.995-59.998c-6.886-3.936-15.44-3.935-22.326 0l-3.837 2.193v-4.267c5.633-.739 10-5.559 10-11.391v-22c0-6.341-5.159-11.5-11.5-11.5h-71.998c-6.341 0-11.5 5.159-11.5 11.5v22c0 5.832 4.366 10.652 10 11.391v47.123l-26.159 14.948c-5.218 2.981-8.963 7.816-10.544 13.615-1.581 5.798-.81 11.865 2.172 17.083s7.818 8.963 13.615 10.544c1.969.537 3.968.803 5.955.803 2.539 0 5.056-.443 7.462-1.299v93.793h-61.998v-93.798c2.399.849 4.929 1.297 7.48 1.297h.004c8.061 0 15.551-4.345 19.548-11.339 2.982-5.218 3.753-11.285 2.172-17.083s-5.326-10.633-10.544-13.615l-31.993-18.282c-3.596-2.055-8.177-.806-10.232 2.791s-.806 8.178 2.79 10.233l31.994 18.282c1.739.994 2.987 2.605 3.515 4.538.527 1.933.27 3.955-.724 5.694-1.333 2.333-3.833 3.781-6.526 3.781-1.308 0-2.555-.333-3.705-.991l-97.553-55.745c-2.307-1.317-5.136-1.317-7.442 0l-97.555 55.746c-1.738.994-3.76 1.25-5.691.724-1.933-.527-3.545-1.776-4.539-3.516-.994-1.739-1.251-3.761-.724-5.694s1.775-3.544 3.515-4.538l104.995-59.998c2.295-1.312 5.146-1.312 7.441 0l42.474 24.273c3.598 2.056 8.178.806 10.233-2.791s.806-8.178-2.79-10.233l-42.475-24.272c-6.886-3.936-15.44-3.935-22.326 0l-3.837 2.193v-4.267c5.633-.739 10-5.559 10-11.391v-22c0-6.341-5.159-11.5-11.5-11.5h-71.999c-6.341 0-11.5 5.159-11.5 11.5v22c0 5.832 4.366 10.652 10 11.391v47.123l-26.159 14.948c-5.218 2.981-8.963 7.816-10.544 13.615s-.81 11.865 2.172 17.083 7.818 8.963 13.615 10.544c1.969.537 3.968.803 5.955.803 2.539 0 5.056-.443 7.462-1.299v93.793h-7.5c-12.407 0-22.5 10.093-22.5 22.5s10.093 22.5 22.5 22.5h466.987c12.406 0 22.499-10.093 22.499-22.5s-10.093-22.5-22.5-22.5zm-446.987-226.5h64.998v15h-64.998zm10 30h44.999v12.729l-44.999 25.714zm246.993-30h64.998v15h-64.998zm9.999 30h44.999v12.729l-44.999 25.714zm-31.969 88.733c-1.933-.527-3.545-1.776-4.539-3.516-.994-1.739-1.251-3.761-.724-5.694s1.775-3.544 3.515-4.538l104.995-59.998c1.147-.656 2.434-.984 3.721-.984s2.573.328 3.721.984l104.995 59.998c1.739.994 2.987 2.605 3.515 4.538.527 1.933.27 3.955-.724 5.694-1.333 2.333-3.833 3.781-6.526 3.781-1.308 0-2.555-.333-3.705-.991l-97.553-55.745c-2.307-1.317-5.136-1.317-7.442 0l-97.555 55.746c-1.742.995-3.762 1.252-5.694.725zm24.47 5.822 82.498-47.141 82.498 47.141v101.945h-31.885v-12.539c0-4.142-3.358-7.5-7.5-7.5s-7.5 3.358-7.5 7.5v12.539h-70.998v-85h70.998v38c0 4.142 3.358 7.5 7.5 7.5s7.5-3.358 7.5-7.5v-41.5c0-6.341-5.159-11.5-11.5-11.5h-77.998c-6.341 0-11.5 5.159-11.5 11.5v88.5h-32.114v-101.945zm-256.993 0 82.498-47.141 82.498 47.141v101.945h-31.884v-88.5c0-6.341-5.159-11.5-11.5-11.5h-77.998c-6.341 0-11.5 5.159-11.5 11.5v88.5h-32.114zm118.112 101.945h-70.998v-85h70.998zm326.375 30h-466.986c-4.136 0-7.5-3.364-7.5-7.5s3.364-7.5 7.5-7.5h466.987c4.136 0 7.5 3.364 7.5 7.5s-3.365 7.5-7.501 7.5z"/><path d="m338.28 25c4.142 0 7.5-3.358 7.5-7.5v-10c0-4.142-3.358-7.5-7.5-7.5s-7.5 3.358-7.5 7.5v10c0 4.142 3.358 7.5 7.5 7.5z"/><path d="m382.119 43.159c1.919 0 3.839-.732 5.303-2.196l7.071-7.071c2.929-2.929 2.929-7.678 0-10.607-2.929-2.928-7.678-2.929-10.607 0l-7.071 7.071c-2.929 2.929-2.929 7.678 0 10.607 1.465 1.464 3.385 2.196 5.304 2.196z"/><path d="m392.778 79.5c0 4.142 3.358 7.5 7.5 7.5h10c4.142 0 7.5-3.358 7.5-7.5s-3.358-7.5-7.5-7.5h-10c-4.142 0-7.5 3.358-7.5 7.5z"/><path d="m387.422 118.037c-2.93-2.929-7.677-2.928-10.607 0-2.929 2.929-2.928 7.678 0 10.607l7.071 7.071c1.465 1.464 3.384 2.196 5.303 2.196s3.839-.732 5.304-2.197c2.929-2.929 2.928-7.678 0-10.607z"/><path d="m289.137 40.962c1.464 1.464 3.384 2.197 5.303 2.197s3.839-.732 5.303-2.197c2.929-2.929 2.929-7.678 0-10.606l-7.071-7.071c-2.929-2.929-7.678-2.929-10.606 0-2.929 2.929-2.929 7.678 0 10.606z"/><path d="m112.901 145.662h251.994c3.08 0 5.993-1.345 7.992-3.691 1.996-2.342 2.862-5.426 2.374-8.462-1.194-7.428-4.618-13.97-9.527-19.003 10.582-8.334 17.044-21.218 17.044-35.005 0-24.538-19.962-44.5-44.499-44.5s-44.499 19.962-44.499 44.5c0 .74.028 1.479.064 2.216-2.514.204-4.991.626-7.4 1.287-3.015-26.091-25.239-46.415-52.119-46.415-4.142 0-7.5 3.358-7.5 7.5s3.358 7.5 7.5 7.5c20.66 0 37.467 16.813 37.467 37.478 0 1.5-.096 3.046-.284 4.598-.353 2.91 1.02 5.759 3.517 7.294 2.496 1.535 5.659 1.475 8.096-.154 4.146-2.772 8.999-4.237 14.034-4.237 11.652 0 21.761 7.883 24.583 19.17.54 2.162 2.013 3.971 4.02 4.938 2.008.968 4.34.992 6.367.068 2.643-1.205 5.46-1.816 8.372-1.816 8.106 0 15.163 4.705 18.374 11.736h-239.949c3.212-7.032 10.269-11.736 18.374-11.736 1.083 0 2.206.096 3.335.286 1.962.327 3.979-.137 5.601-1.295 1.621-1.158 2.714-2.914 3.039-4.879 2.351-14.234 14.542-24.565 28.985-24.565 3.128 0 6.221.497 9.195 1.478 2.114.696 4.426.418 6.314-.757 1.888-1.176 3.157-3.13 3.463-5.333 1.13-8.132 4.817-15.511 10.662-21.339 2.934-2.925 2.94-7.673.016-10.607-2.925-2.933-7.673-2.94-10.607-.015-6.135 6.118-10.671 13.726-13.178 21.963-1.939-.259-3.897-.389-5.865-.389-19.498 0-36.278 12.469-42.161 30.474-16.856.558-30.87 12.818-33.561 29.563-.487 3.035.378 6.119 2.374 8.461 2 2.343 4.913 3.688 7.993 3.688zm220.712-41.061c-4.857-10.269-13.822-17.943-24.574-21.244-.166-1.275-.258-2.563-.258-3.857 0-16.266 13.233-29.5 29.499-29.5s29.499 13.234 29.499 29.5c0 11.049-6.267 21.212-16.046 26.24-3.535-1.176-7.312-1.814-11.233-1.814-2.335 0-4.635.226-6.887.675z"/></g></g></svg>