<?xml version="1.0" encoding="iso-8859-1"?>
<!-- Generator: Adobe Illustrator 19.0.0, SVG Export Plug-In . SVG Version: 6.00 Build 0)  -->
<svg version="1.1" id="Capa_1" xmlns="http://www.w3.org/2000/svg" xmlns:xlink="http://www.w3.org/1999/xlink" x="0px" y="0px"
	 viewBox="0 0 480 480" style="enable-background:new 0 0 480 480;" xml:space="preserve">
<g>
	<g>
		<path d="M434.992,17.752C425.424,25.4,417.168,32,399.968,32c-17.2,0-25.464-6.6-35.024-14.248C354.536,9.432,342.744,0,319.928,0
			c-22.8,0-34.584,9.432-44.992,17.752C265.384,25.4,257.136,32,239.944,32s-25.448-6.6-35.008-14.248
			C194.536,9.432,182.744,0,159.936,0c-22.808,0-34.592,9.432-44.992,17.76C105.392,25.4,97.144,32,79.96,32
			c-17.184,0-25.432-6.6-34.984-14.248C34.576,9.432,22.8,0,0,0v16c17.176,0,25.424,6.6,34.976,14.24
			C45.376,38.568,57.16,48,79.96,48c22.8,0,34.584-9.432,44.992-17.752C134.496,22.6,142.744,16,159.936,16
			s25.448,6.6,35.008,14.248c10.4,8.32,22.192,17.752,45,17.752c22.808,0,34.592-9.432,44.992-17.76
			c9.552-7.64,17.8-14.24,34.992-14.24c17.2,0,25.464,6.6,35.024,14.248c10.4,8.32,22.2,17.752,45.016,17.752
			s34.608-9.432,45.016-17.752C454.544,22.6,462.8,16,480,16V0C457.184,0,445.392,9.432,434.992,17.752z"/>
	</g>
</g>
<g>
	<g>
		<path d="M434.992,185.752C425.424,193.4,417.168,200,399.968,200c-17.2,0-25.464-6.6-35.024-14.248
			c-10.408-8.32-22.2-17.752-45.016-17.752c-22.8,0-34.584,9.432-44.992,17.752C265.384,193.4,257.136,200,239.944,200
			s-25.448-6.6-35.008-14.248c-10.4-8.32-22.192-17.752-45-17.752c-22.808,0-34.592,9.432-44.992,17.76
			C105.392,193.4,97.144,200,79.96,200c-17.184,0-25.432-6.6-34.984-14.248C34.576,177.432,22.8,168,0,168v16
			c17.176,0,25.424,6.6,34.976,14.24C45.376,206.568,57.16,216,79.96,216c22.8,0,34.584-9.432,44.992-17.752
			C134.496,190.6,142.744,184,159.936,184s25.448,6.6,35.008,14.248c10.4,8.32,22.192,17.752,45,17.752
			c22.808,0,34.592-9.432,44.992-17.76c9.552-7.64,17.8-14.24,34.992-14.24c17.2,0,25.464,6.6,35.024,14.248
			c10.4,8.32,22.2,17.752,45.016,17.752s34.608-9.432,45.016-17.752C454.544,190.6,462.8,184,480,184v-16
			C457.184,168,445.392,177.432,434.992,185.752z"/>
	</g>
</g>
<g>
	<g>
		<path d="M434.992,97.752C425.424,105.4,417.168,112,399.968,112c-17.2,0-25.464-6.6-35.024-14.248
			C354.536,89.432,342.744,80,319.928,80c-22.8,0-34.584,9.432-44.992,17.752C265.384,105.4,257.136,112,239.944,112
			s-25.448-6.6-35.008-14.248c-10.4-8.32-22.192-17.752-45-17.752c-22.808,0-34.592,9.432-44.992,17.76
			C105.392,105.4,97.144,112,79.96,112c-17.184,0-25.432-6.6-34.984-14.248C34.576,89.432,22.8,80,0,80v16
			c17.176,0,25.424,6.6,34.976,14.24C45.376,118.568,57.16,128,79.96,128c22.8,0,34.584-9.432,44.992-17.752
			C134.496,102.6,142.744,96,159.936,96s25.448,6.6,35.008,14.248c10.4,8.32,22.192,17.752,45,17.752
			c22.808,0,34.592-9.432,44.992-17.76c9.552-7.64,17.8-14.24,34.992-14.24c17.2,0,25.464,6.6,35.024,14.248
			c10.4,8.32,22.2,17.752,45.016,17.752s34.608-9.432,45.016-17.752C454.544,102.6,462.8,96,480,96V80
			C457.184,80,445.392,89.432,434.992,97.752z"/>
	</g>
</g>
<g>
	<g>
		<path d="M434.992,273.752C425.424,281.4,417.168,288,399.968,288c-17.2,0-25.464-6.6-35.024-14.248
			c-10.408-8.32-22.2-17.752-45.016-17.752c-22.8,0-34.584,9.432-44.992,17.752C265.384,281.4,257.136,288,239.944,288
			s-25.448-6.6-35.008-14.248c-10.4-8.32-22.192-17.752-45-17.752c-22.808,0-34.592,9.432-44.992,17.76
			C105.392,281.4,97.144,288,79.96,288c-17.184,0-25.432-6.6-34.984-14.248C34.576,265.432,22.8,256,0,256v16
			c17.176,0,25.424,6.6,34.976,14.24C45.376,294.568,57.16,304,79.96,304c22.8,0,34.584-9.432,44.992-17.752
			C134.496,278.6,142.744,272,159.936,272s25.448,6.6,35.008,14.248c10.4,8.32,22.192,17.752,45,17.752
			c22.808,0,34.592-9.432,44.992-17.76c9.552-7.64,17.8-14.24,34.992-14.24c17.2,0,25.464,6.6,35.024,14.248
			c10.4,8.32,22.2,17.752,45.016,17.752s34.608-9.432,45.016-17.752C454.544,278.6,462.8,272,480,272v-16
			C457.184,256,445.392,265.432,434.992,273.752z"/>
	</g>
</g>
<g>
	<g>
		<path d="M434.992,449.752C425.424,457.4,417.168,464,399.968,464c-17.2,0-25.464-6.6-35.024-14.248
			c-10.408-8.32-22.2-17.752-45.016-17.752c-22.8,0-34.584,9.432-44.992,17.752C265.384,457.4,257.136,464,239.944,464
			s-25.448-6.6-35.008-14.248c-10.4-8.32-22.192-17.752-45-17.752c-22.808,0-34.592,9.432-44.992,17.76
			C105.392,457.4,97.144,464,79.96,464c-17.184,0-25.432-6.6-34.984-14.248C34.576,441.432,22.8,432,0,432v16
			c17.176,0,25.424,6.6,34.976,14.24C45.376,470.568,57.16,480,79.96,480c22.8,0,34.584-9.432,44.992-17.752
			C134.496,454.6,142.744,448,159.936,448s25.448,6.6,35.008,14.248c10.4,8.32,22.192,17.752,45,17.752
			c22.808,0,34.592-9.432,44.992-17.76c9.552-7.64,17.8-14.24,34.992-14.24c17.2,0,25.464,6.6,35.024,14.248
			c10.4,8.32,22.2,17.752,45.016,17.752s34.608-9.432,45.016-17.752C454.544,454.6,462.8,448,480,448v-16
			C457.184,432,445.392,441.432,434.992,449.752z"/>
	</g>
</g>
<g>
	<g>
		<path d="M434.992,361.752C425.424,369.4,417.168,376,399.968,376c-17.2,0-25.464-6.6-35.024-14.248
			c-10.408-8.32-22.2-17.752-45.016-17.752c-22.8,0-34.584,9.432-44.992,17.752C265.384,369.4,257.136,376,239.944,376
			s-25.448-6.6-35.008-14.248c-10.4-8.32-22.192-17.752-45-17.752c-22.808,0-34.592,9.432-44.992,17.76
			C105.392,369.4,97.144,376,79.96,376c-17.184,0-25.432-6.6-34.984-14.248C34.576,353.432,22.8,344,0,344v16
			c17.176,0,25.424,6.6,34.976,14.24C45.376,382.568,57.16,392,79.96,392c22.8,0,34.584-9.432,44.992-17.752
			C134.496,366.6,142.744,360,159.936,360s25.448,6.6,35.008,14.248c10.4,8.32,22.192,17.752,45,17.752
			c22.808,0,34.592-9.432,44.992-17.76c9.552-7.64,17.8-14.24,34.992-14.24c17.2,0,25.464,6.6,35.024,14.248
			c10.4,8.32,22.2,17.752,45.016,17.752s34.608-9.432,45.016-17.752C454.544,366.6,462.8,360,480,360v-16
			C457.184,344,445.392,353.432,434.992,361.752z"/>
	</g>
</g>
<g>
</g>
<g>
</g>
<g>
</g>
<g>
</g>
<g>
</g>
<g>
</g>
<g>
</g>
<g>
</g>
<g>
</g>
<g>
</g>
<g>
</g>
<g>
</g>
<g>
</g>
<g>
</g>
<g>
</g>
</svg>
